<svg width="100" height="100" viewBox="0 0 100 100" fill="none" xmlns="http://www.w3.org/2000/svg">
<rect width="100" height="100" rx="17" fill="url(#paint0_linear_1_56)"/>
<path d="M49.373 19.5645C49.9688 19.4784 50.5742 19.4784 51.1699 19.5645L51.4434 19.6113C52.0121 19.7251 52.5537 19.9285 53.0938 20.1318L73.1904 24.2725L73.3789 24.3193C73.4411 24.3373 73.5028 24.3571 73.5635 24.3799C76.2042 25.3702 78.1593 26.0615 79.6309 27.3584C80.8576 28.4394 81.8023 29.8031 82.3838 31.3311C83.0817 33.1646 83.043 35.238 83.043 38.0586V52.3711C83.0429 61.852 77.2623 69.7508 71.0166 75.5566C65.1112 81.046 58.4273 85.0054 54.583 87.0586L53.8535 87.4434C53.1481 87.811 52.4314 88.2058 51.4717 88.3926C50.7364 88.5357 49.8067 88.5356 49.0713 88.3926C48.1114 88.2059 47.394 87.8111 46.6885 87.4434V87.4424C43.0084 85.525 35.8246 81.4111 29.5264 75.5566C23.2807 69.7508 17.5001 61.852 17.5 52.3711V38.0586C17.5 35.2379 17.4605 33.1645 18.1582 31.3311C18.7397 29.8031 19.6845 28.4394 20.9111 27.3584C22.3828 26.0615 24.3385 25.3703 26.9795 24.3799L27.1641 24.3193C27.2262 24.3014 27.2892 24.2855 27.3525 24.2725L47.4482 20.1318C48.0743 19.8962 48.7032 19.6612 49.373 19.5645Z" stroke="white" stroke-width="5" stroke-linecap="round" stroke-linejoin="round"/>
<path d="M47.8443 85.2266C48.6211 85.6314 49.0097 85.8339 49.5485 85.9387C49.9686 86.0204 50.574 86.0204 50.994 85.9387C51.5328 85.8339 51.9214 85.6314 52.6983 85.2266C59.8824 81.4835 80.5426 69.2513 80.5426 52.3709V38.0587C80.5426 35.0334 80.5425 33.5208 80.0476 32.2205C79.6106 31.0719 78.9003 30.0469 77.9782 29.2343C76.9346 28.3145 75.5183 27.7834 72.6856 26.7211L52.3971 22.5399C51.6104 22.2449 51.2173 22.0974 50.8124 22.0389C50.4537 21.987 50.0889 21.987 49.7302 22.0389C49.3253 22.0974 48.9322 22.2449 48.1455 22.5399L27.8569 26.7211C25.0243 27.7834 23.608 28.3145 22.5642 29.2343C21.6421 30.0469 20.9319 31.0719 20.4948 32.2205C20 33.5208 20 35.0334 20 38.0587V52.3709C20 69.2513 40.66 81.4835 47.8443 85.2266Z" fill="white" stroke="#13223E" stroke-width="5" stroke-linecap="round" stroke-linejoin="round"/>
<path d="M50.114 6C43.555 6 38 11.587 38 18.204C38 21.5274 39.4809 24.887 41.5 28.033C43.6911 31.4471 46.516 34.6097 48.77 37.202C48.787 37.222 49.487 37.999 50.349 37.999H50.425C51.288 37.999 51.983 37.222 52 37.202C54.0238 34.8754 56.5119 31.7966 58.5 28.474C60.5041 25.1247 62 21.5278 62 18.204C62 11.586 57.667 6 50.114 6ZM50.515 35.86C50.48 35.895 50.429 35.934 50.384 35.967C50.338 35.935 50.288 35.895 50.251 35.86L49.728 35.258C47.6344 32.8564 45.1464 30.0022 43.2105 27C41.3497 24.1142 39.999 21.0917 39.999 18.203C39.999 12.671 44.631 7.998 50.113 7.998C56.942 7.998 59.999 13.123 59.999 18.203C59.999 20.8134 58.9127 23.9236 56.7577 27.5C55.2193 30.0531 53.1362 32.8439 50.515 35.86ZM50.035 12.055C46.722 12.055 44.035 14.741 44.035 18.055C44.035 21.369 46.722 24.055 50.035 24.055C53.348 24.055 56.035 21.368 56.035 18.055C56.035 14.742 53.349 12.055 50.035 12.055ZM50.035 22.055C47.829 22.055 45.989 20.217 45.989 18.011C45.989 15.805 47.783 14.011 49.989 14.011C52.196 14.011 53.989 15.805 53.989 18.011C53.99 20.217 52.242 22.055 50.035 22.055Z" fill="white"/>
<path fill-rule="evenodd" clip-rule="evenodd" d="M50.515 35.86C50.48 35.895 50.429 35.934 50.384 35.967C50.338 35.935 50.288 35.895 50.251 35.86L49.728 35.258C47.6344 32.8564 45.1464 30.0022 43.2105 27C41.3497 24.1142 39.999 21.0917 39.999 18.203C39.999 12.671 44.631 7.998 50.113 7.998C56.942 7.998 59.999 13.123 59.999 18.203C59.999 20.8134 58.9127 23.9236 56.7577 27.5C55.2193 30.0531 53.1362 32.8439 50.515 35.86ZM44.035 18.055C44.035 14.741 46.722 12.055 50.035 12.055C53.349 12.055 56.035 14.742 56.035 18.055C56.035 21.368 53.348 24.055 50.035 24.055C46.722 24.055 44.035 21.369 44.035 18.055Z" fill="#142342"/>
<path d="M50.035 22.055C47.829 22.055 45.989 20.217 45.989 18.011C45.989 15.805 47.783 14.011 49.989 14.011C52.196 14.011 53.989 15.805 53.989 18.011C53.99 20.217 52.242 22.055 50.035 22.055Z" fill="#1A828B"/>
<path d="M54.8571 36V48.1429H67V36H54.8571ZM64.5714 45.7143H57.2857V38.4286H64.5714V45.7143Z" fill="#14908E"/>
<path d="M40.2857 40.8571H37.8571V43.2857H40.2857V40.8571Z" fill="#142243"/>
<path d="M62.1428 40.8571H59.7142V43.2857H62.1428V40.8571Z" fill="#14908E"/>
<path d="M52.4286 40.8571H50V38.4286H52.4286V36H47.5714V43.2857H50V45.7143H52.4286V40.8571Z" fill="#142243"/>
<path d="M45.1429 48.1429V36H33V48.1429H35.4286H45.1429ZM35.4286 38.4286H42.7143V45.7143H35.4286V38.4286Z" fill="#142243"/>
<path d="M33 50.5714V55.4286H35.4286V53H37.8571V50.5714H33Z" fill="#142243"/>
<path d="M50 53H52.4286V48.1429H50V45.7143H47.5714V50.5714H50V53Z" fill="#142243"/>
<path d="M62.1428 50.5714H59.7142V53H62.1428V50.5714Z" fill="#142243"/>
<path d="M67 50.5714H64.5714V53H67V50.5714Z" fill="#142243"/>
<path d="M57.2857 55.4286V57.8571H59.7143V60.2857H62.1429V55.4286H59.7143V53H57.2857V50.5714H54.8572V53H52.4286V55.4286H57.2857Z" fill="#142243"/>
<path d="M64.5715 53H62.1429V55.4286H64.5715V53Z" fill="#142243"/>
<path d="M33 57.8571V70H45.1429V57.8571H33ZM42.7143 67.5714H35.4286V60.2857H42.7143V67.5714Z" fill="#142243"/>
<path d="M52.4285 55.4286H50V53H47.5714V50.5714H40.2857V53H37.8571V55.4286H42.7143V53H45.1428V55.4286H47.5714V57.8571H50V60.2857H52.4285V55.4286Z" fill="#142243"/>
<path d="M57.2857 57.8571H54.8571V60.2857H57.2857V57.8571Z" fill="#142243"/>
<path d="M67 55.4286H64.5714V60.2857H67V55.4286Z" fill="#142243"/>
<path d="M59.7143 60.2857H57.2858V62.7143H59.7143V60.2857Z" fill="#142243"/>
<path d="M64.5715 60.2857H62.1429V62.7143H64.5715V60.2857Z" fill="#142243"/>
<path d="M40.2857 62.7143H37.8571V65.1429H40.2857V62.7143Z" fill="#142243"/>
<path d="M57.2857 65.1429V62.7143H54.8571V60.2857H52.4286V62.7143H50V60.2857H47.5714V65.1429H50V67.5714H52.4286V65.1429H57.2857Z" fill="#142243"/>
<path d="M59.7143 65.1429H57.2858V67.5714H59.7143V70H62.1429V62.7143H59.7143V65.1429Z" fill="#142243"/>
<path d="M67 62.7143H64.5714V65.1429H67V62.7143Z" fill="#142243"/>
<path d="M50 67.5714H47.5714V70H50V67.5714Z" fill="#142243"/>
<path d="M57.2857 67.5714H52.4286V70H57.2857V67.5714Z" fill="#142243"/>
<path d="M67 67.5714H64.5714V70H67V67.5714Z" fill="#142243"/>
<defs>
<linearGradient id="paint0_linear_1_56" x1="12.5" y1="50" x2="93.5" y2="104.5" gradientUnits="userSpaceOnUse">
<stop stop-color="#152348"/>
<stop offset="1" stop-color="#19ACA2"/>
</linearGradient>
</defs>
</svg>
